<?xml version="1.0" encoding="utf-8"?>
<!-- Generator: Adobe Illustrator 29.8.1, SVG Export Plug-In . SVG Version: 9.03 Build 0)  -->
<svg version="1.0" id="Layer_1" xmlns="http://www.w3.org/2000/svg" xmlns:xlink="http://www.w3.org/1999/xlink" x="0px" y="0px"
	 viewBox="0 0 566.93 566.93" style="enable-background:new 0 0 566.93 566.93;" xml:space="preserve">
<style type="text/css">
	.st0{fill:#FFFFFF;}
	.st1{fill:#8A658E;}
	.st2{fill:#E5A1AA;}
</style>
<path class="st0" d="M333.24,467.06c-13.11,13.45-40.31,24.41-58.92,24.8c-8.44,0.18-50.94-7.16-56.51-15.38
	c-0.44-0.66-0.51-1.5-0.36-2.28c6.46-33.02,1.33-61.86-7.81-93.68C187.86,304.63,158.4,256.24,220,187.74
	c8.21-9.13,17.94-13.53,24.64-25.29c20.78-36.48-13.53-49.14-20.85-80.49c-4.16-17.82,1.92-36.09-1.34-54.1
	c-0.1-0.55-0.3-1.1-0.68-1.51c-3.51-3.76-10.78,1.3-14.37,3.32c-13.55,7.62-26.17,27.11-38.97,32.67
	c-3.33,1.45-34.51,9.64-37.96,9.95c-12.5,1.14-46.01-34.92-59.16-26.83c-7.39,4.55-2.14,15.49-2.06,21.72
	c0.93,68.64-4.94,86.97-24.06,149.81C2,358.91,90.06,504.28,234.53,533.65c84.54,17.19,182.69-32.61,159.28-131.06
	c-10.39-43.68-68.81-74.34-76.69-107.99c-3.72-15.87,16.5-41.1,33.45-43.75c1.82-0.28,3.16-1.9,2.92-3.73
	c-1.82-13.67-25.95-15.68-37.45-13.27c-9.63,2.01-27.27,17.72-32.43,26.19C231.99,344.82,408.4,389.99,333.24,467.06z"/>
<path class="st0" d="M345.61,522.93c-0.49,2.31,1.45,4.37,3.79,4.06c14.88-2.03,58.57-23.83,66.39-28.39
	c103.74-60.5,146.37-195.38,98.8-305.8C467.15,82.66,355.33,30.49,238.73,46.3c-1.45,0.2-2.65,1.31-2.88,2.76
	c-5.48,33.42,21.43,52.79,32.49,81.65c0.54,1.42,1.94,2.32,3.46,2.18c197.95-17.48,247.61,256.3,110.99,365.27
	c-10.64,8.48-23.62,13.94-35.25,20.9c-0.81,0.48-1.37,1.29-1.57,2.21L345.61,522.93z"/>
<path class="st1" d="M333.24,467.06c75.17-77.08-101.25-122.24-49.62-207.02c5.16-8.47,22.8-24.18,32.43-26.19
	c11.51-2.4,35.63-0.39,37.45,13.27c0.24,1.83-1.1,3.45-2.92,3.73c-16.95,2.65-37.17,27.88-33.45,43.75
	c7.88,33.65,66.3,64.31,76.69,107.99c23.41,98.44-74.74,148.24-159.28,131.06C90.06,504.28,2,358.91,45.18,217
	c19.12-62.84,24.99-81.18,24.06-149.81c-0.08-6.23-5.33-17.17,2.06-21.72c13.15-8.1,46.66,27.97,59.16,26.83
	c3.45-0.31,34.63-8.5,37.96-9.95c12.8-5.56,25.42-25.05,38.97-32.67c3.59-2.02,10.86-7.09,14.37-3.32c0.38,0.41,0.58,0.96,0.68,1.51
	c3.27,18.01-2.82,36.28,1.34,54.1c7.32,31.35,41.64,44,20.85,80.49c-6.7,11.76-16.43,16.16-24.64,25.29
	c-61.6,68.5-32.14,116.89-10.35,192.77c9.14,31.82,14.27,60.67,7.81,93.68c-0.15,0.78-0.08,1.63,0.36,2.28
	c5.56,8.22,48.07,15.56,56.51,15.38C292.93,491.47,320.12,480.51,333.24,467.06z"/>
<path class="st2" d="M345.61,522.93l0.35-1.66c0.2-0.92,0.76-1.73,1.57-2.21c11.62-6.96,24.61-12.42,35.25-20.9
	C519.4,389.2,469.75,115.41,271.8,132.89c-1.52,0.13-2.92-0.76-3.46-2.18c-11.06-28.86-37.97-48.23-32.49-81.65
	c0.24-1.45,1.43-2.56,2.88-2.76c116.6-15.81,228.42,36.36,275.87,146.5c47.57,110.42,4.93,245.29-98.8,305.8
	c-7.82,4.56-51.51,26.36-66.39,28.39C347.07,527.31,345.12,525.24,345.61,522.93z"/>
</svg>
